<?xml version="1.0" encoding="UTF-8" standalone="no"?>
<svg
   height="24px"
   viewBox="0 -960 960 960"
   width="24px"
   fill="#1f1f1f"
   version="1.1"
   id="svg1"
   sodipodi:docname="format_list_letter_upper_24dp.svg"
   inkscape:version="1.4.2 (f4327f4, 2025-05-13)"
   inkscape:export-filename="format_list_letter_upper_24dp.png"
   inkscape:export-xdpi="96"
   inkscape:export-ydpi="96"
   xmlns:inkscape="http://www.inkscape.org/namespaces/inkscape"
   xmlns:sodipodi="http://sodipodi.sourceforge.net/DTD/sodipodi-0.dtd"
   xmlns="http://www.w3.org/2000/svg"
   xmlns:svg="http://www.w3.org/2000/svg">
  <defs
     id="defs1" />
  <sodipodi:namedview
     id="namedview1"
     pagecolor="#ffffff"
     bordercolor="#000000"
     borderopacity="0.25"
     inkscape:showpageshadow="2"
     inkscape:pageopacity="0.0"
     inkscape:pagecheckerboard="0"
     inkscape:deskcolor="#d1d1d1"
     showgrid="false"
     inkscape:zoom="33.875"
     inkscape:cx="12"
     inkscape:cy="12.02952"
     inkscape:window-width="1920"
     inkscape:window-height="1094"
     inkscape:window-x="-11"
     inkscape:window-y="-11"
     inkscape:window-maximized="1"
     inkscape:current-layer="svg1" />
  <path
     d="M 280-80 h -120 q -40 0-40-40 v -160 q 0-40 40-40 h 120 v 60 h -100 v 120 h 100 v 60 Z M 120-360 v -60 h 100 v -30 h -60 v -60 h 60 v -30 H 120 v -60 h 120 q 17 0 28.5 11.5 T 280-560 v 40 q 0 17-11.5 28.5 T 240-480 q 17 0 28.5 11.5 T 280-440 v 40 q 0 17-11.5 28.5 T 240-360 h 120 Z M 120-400 v -160 h 60 v 160 h -60 Z M 120-640 v -200 q 0-40 40-40 h 80 q 40 0 40 40 v 200 h -60 v -180 h -40 v 180 h -60 Z m 60-60 v -60 h 40 v 60 h -40 Z M 360-200 v -80 h 480 v 80 H 360 Z m 0-240 v -80 h 480 v 80 H 360 Z m 0-240 v -80 h 480 v 80 H 360 Z"
     id="path1" />
</svg>
